<mxfile host="app.diagrams.net" modified="2023-11-24T10:41:57.952Z" agent="Mozilla/5.0 (Windows NT 10.0; Win64; x64) AppleWebKit/537.36 (KHTML, like Gecko) Chrome/119.0.0.0 Safari/537.36" etag="iuXK6nfFqGCVwt_BhHF_" version="22.1.3" type="device">
  <diagram name="Page-1" id="ma_yxxifLasTanGZJS4U">
    <mxGraphModel dx="1050" dy="581" grid="1" gridSize="10" guides="1" tooltips="1" connect="1" arrows="1" fold="1" page="1" pageScale="1" pageWidth="827" pageHeight="1169" math="0" shadow="0">
      <root>
        <mxCell id="0" />
        <mxCell id="1" parent="0" />
        <mxCell id="blFSkxdI-w_qwhiomdWg-1" value="" style="whiteSpace=wrap;html=1;aspect=fixed;" vertex="1" parent="1">
          <mxGeometry x="150" y="80" width="530" height="530" as="geometry" />
        </mxCell>
        <mxCell id="blFSkxdI-w_qwhiomdWg-2" value="Admin" style="shape=umlActor;verticalLabelPosition=bottom;verticalAlign=top;html=1;outlineConnect=0;" vertex="1" parent="1">
          <mxGeometry x="60" y="120" width="30" height="60" as="geometry" />
        </mxCell>
        <mxCell id="blFSkxdI-w_qwhiomdWg-3" value="voir les&amp;nbsp;&amp;nbsp;&lt;br&gt;&amp;nbsp;statistiques" style="ellipse;whiteSpace=wrap;html=1;" vertex="1" parent="1">
          <mxGeometry x="300" y="90" width="120" height="80" as="geometry" />
        </mxCell>
        <mxCell id="blFSkxdI-w_qwhiomdWg-4" value="gestion des palte" style="ellipse;whiteSpace=wrap;html=1;" vertex="1" parent="1">
          <mxGeometry x="190" y="350" width="120" height="80" as="geometry" />
        </mxCell>
        <mxCell id="blFSkxdI-w_qwhiomdWg-5" value="gestion des chefs" style="ellipse;whiteSpace=wrap;html=1;" vertex="1" parent="1">
          <mxGeometry x="530" y="250" width="120" height="80" as="geometry" />
        </mxCell>
        <mxCell id="blFSkxdI-w_qwhiomdWg-6" value="" style="endArrow=classic;html=1;rounded=0;entryX=0;entryY=0;entryDx=0;entryDy=0;" edge="1" parent="1" source="blFSkxdI-w_qwhiomdWg-2" target="blFSkxdI-w_qwhiomdWg-4">
          <mxGeometry width="50" height="50" relative="1" as="geometry">
            <mxPoint x="250" y="390" as="sourcePoint" />
            <mxPoint x="300" y="340" as="targetPoint" />
          </mxGeometry>
        </mxCell>
        <mxCell id="blFSkxdI-w_qwhiomdWg-7" value="" style="endArrow=classic;html=1;rounded=0;" edge="1" parent="1" target="blFSkxdI-w_qwhiomdWg-3">
          <mxGeometry width="50" height="50" relative="1" as="geometry">
            <mxPoint x="100" y="180" as="sourcePoint" />
            <mxPoint x="218" y="242" as="targetPoint" />
          </mxGeometry>
        </mxCell>
        <mxCell id="blFSkxdI-w_qwhiomdWg-8" value="" style="endArrow=classic;html=1;rounded=0;entryX=0.02;entryY=0.633;entryDx=0;entryDy=0;entryPerimeter=0;" edge="1" parent="1" target="blFSkxdI-w_qwhiomdWg-5">
          <mxGeometry width="50" height="50" relative="1" as="geometry">
            <mxPoint x="110" y="179" as="sourcePoint" />
            <mxPoint x="370" y="180" as="targetPoint" />
          </mxGeometry>
        </mxCell>
        <mxCell id="blFSkxdI-w_qwhiomdWg-9" value="gestion des menu" style="ellipse;whiteSpace=wrap;html=1;" vertex="1" parent="1">
          <mxGeometry x="470" y="480" width="120" height="80" as="geometry" />
        </mxCell>
        <mxCell id="blFSkxdI-w_qwhiomdWg-10" value="" style="endArrow=classic;html=1;rounded=0;entryX=0.429;entryY=-0.009;entryDx=0;entryDy=0;entryPerimeter=0;" edge="1" parent="1" target="blFSkxdI-w_qwhiomdWg-9">
          <mxGeometry width="50" height="50" relative="1" as="geometry">
            <mxPoint x="120" y="189" as="sourcePoint" />
            <mxPoint x="542" y="260" as="targetPoint" />
          </mxGeometry>
        </mxCell>
        <mxCell id="blFSkxdI-w_qwhiomdWg-11" value="ajouter" style="ellipse;whiteSpace=wrap;html=1;" vertex="1" parent="1">
          <mxGeometry x="400" y="550" width="80" height="50" as="geometry" />
        </mxCell>
        <mxCell id="blFSkxdI-w_qwhiomdWg-12" value="liste" style="ellipse;whiteSpace=wrap;html=1;" vertex="1" parent="1">
          <mxGeometry x="380" y="440" width="80" height="50" as="geometry" />
        </mxCell>
        <mxCell id="blFSkxdI-w_qwhiomdWg-13" value="Supreme&amp;nbsp;" style="ellipse;whiteSpace=wrap;html=1;" vertex="1" parent="1">
          <mxGeometry x="580" y="550" width="80" height="50" as="geometry" />
        </mxCell>
        <mxCell id="blFSkxdI-w_qwhiomdWg-14" value="Edite" style="ellipse;whiteSpace=wrap;html=1;" vertex="1" parent="1">
          <mxGeometry x="590" y="440" width="80" height="50" as="geometry" />
        </mxCell>
        <mxCell id="blFSkxdI-w_qwhiomdWg-23" value="liste" style="ellipse;whiteSpace=wrap;html=1;" vertex="1" parent="1">
          <mxGeometry x="160" y="430" width="80" height="50" as="geometry" />
        </mxCell>
        <mxCell id="blFSkxdI-w_qwhiomdWg-24" value="Edite" style="ellipse;whiteSpace=wrap;html=1;" vertex="1" parent="1">
          <mxGeometry x="280" y="440" width="80" height="50" as="geometry" />
        </mxCell>
        <mxCell id="blFSkxdI-w_qwhiomdWg-25" value="ajouter" style="ellipse;whiteSpace=wrap;html=1;" vertex="1" parent="1">
          <mxGeometry x="180" y="280" width="80" height="50" as="geometry" />
        </mxCell>
        <mxCell id="blFSkxdI-w_qwhiomdWg-26" value="Supreme&amp;nbsp;" style="ellipse;whiteSpace=wrap;html=1;" vertex="1" parent="1">
          <mxGeometry x="210" y="500" width="80" height="50" as="geometry" />
        </mxCell>
        <mxCell id="blFSkxdI-w_qwhiomdWg-27" value="Edite" style="ellipse;whiteSpace=wrap;html=1;" vertex="1" parent="1">
          <mxGeometry x="440" y="300" width="80" height="50" as="geometry" />
        </mxCell>
        <mxCell id="blFSkxdI-w_qwhiomdWg-28" value="liste" style="ellipse;whiteSpace=wrap;html=1;" vertex="1" parent="1">
          <mxGeometry x="590" y="350" width="80" height="50" as="geometry" />
        </mxCell>
        <mxCell id="blFSkxdI-w_qwhiomdWg-29" value="ajouter" style="ellipse;whiteSpace=wrap;html=1;" vertex="1" parent="1">
          <mxGeometry x="450" y="190" width="80" height="50" as="geometry" />
        </mxCell>
        <mxCell id="blFSkxdI-w_qwhiomdWg-30" value="Supreme&amp;nbsp;" style="ellipse;whiteSpace=wrap;html=1;" vertex="1" parent="1">
          <mxGeometry x="590" y="180" width="80" height="50" as="geometry" />
        </mxCell>
        <mxCell id="blFSkxdI-w_qwhiomdWg-31" value="" style="endArrow=none;dashed=1;html=1;dashPattern=1 3;strokeWidth=2;rounded=0;entryX=1;entryY=0;entryDx=0;entryDy=0;" edge="1" parent="1" source="blFSkxdI-w_qwhiomdWg-5" target="blFSkxdI-w_qwhiomdWg-27">
          <mxGeometry width="50" height="50" relative="1" as="geometry">
            <mxPoint x="420" y="360" as="sourcePoint" />
            <mxPoint x="470" y="310" as="targetPoint" />
          </mxGeometry>
        </mxCell>
        <mxCell id="blFSkxdI-w_qwhiomdWg-32" value="" style="endArrow=none;dashed=1;html=1;dashPattern=1 3;strokeWidth=2;rounded=0;exitX=0.5;exitY=1;exitDx=0;exitDy=0;" edge="1" parent="1" source="blFSkxdI-w_qwhiomdWg-5" target="blFSkxdI-w_qwhiomdWg-28">
          <mxGeometry width="50" height="50" relative="1" as="geometry">
            <mxPoint x="543" y="312" as="sourcePoint" />
            <mxPoint x="518" y="317" as="targetPoint" />
          </mxGeometry>
        </mxCell>
        <mxCell id="blFSkxdI-w_qwhiomdWg-34" value="" style="endArrow=none;dashed=1;html=1;dashPattern=1 3;strokeWidth=2;rounded=0;entryX=0.27;entryY=1.004;entryDx=0;entryDy=0;exitX=0.5;exitY=0;exitDx=0;exitDy=0;entryPerimeter=0;" edge="1" parent="1" source="blFSkxdI-w_qwhiomdWg-5" target="blFSkxdI-w_qwhiomdWg-30">
          <mxGeometry width="50" height="50" relative="1" as="geometry">
            <mxPoint x="543" y="312" as="sourcePoint" />
            <mxPoint x="518" y="317" as="targetPoint" />
          </mxGeometry>
        </mxCell>
        <mxCell id="blFSkxdI-w_qwhiomdWg-35" value="" style="endArrow=none;dashed=1;html=1;dashPattern=1 3;strokeWidth=2;rounded=0;entryX=1;entryY=1;entryDx=0;entryDy=0;exitX=0;exitY=0;exitDx=0;exitDy=0;" edge="1" parent="1" source="blFSkxdI-w_qwhiomdWg-5" target="blFSkxdI-w_qwhiomdWg-29">
          <mxGeometry width="50" height="50" relative="1" as="geometry">
            <mxPoint x="600" y="260" as="sourcePoint" />
            <mxPoint x="622" y="240" as="targetPoint" />
          </mxGeometry>
        </mxCell>
        <mxCell id="blFSkxdI-w_qwhiomdWg-38" value="" style="endArrow=none;dashed=1;html=1;dashPattern=1 3;strokeWidth=2;rounded=0;exitX=0.5;exitY=0;exitDx=0;exitDy=0;" edge="1" parent="1" source="blFSkxdI-w_qwhiomdWg-4" target="blFSkxdI-w_qwhiomdWg-25">
          <mxGeometry width="50" height="50" relative="1" as="geometry">
            <mxPoint x="420" y="360" as="sourcePoint" />
            <mxPoint x="470" y="310" as="targetPoint" />
          </mxGeometry>
        </mxCell>
        <mxCell id="blFSkxdI-w_qwhiomdWg-39" value="" style="endArrow=none;dashed=1;html=1;dashPattern=1 3;strokeWidth=2;rounded=0;" edge="1" parent="1" source="blFSkxdI-w_qwhiomdWg-4" target="blFSkxdI-w_qwhiomdWg-24">
          <mxGeometry width="50" height="50" relative="1" as="geometry">
            <mxPoint x="420" y="360" as="sourcePoint" />
            <mxPoint x="470" y="310" as="targetPoint" />
          </mxGeometry>
        </mxCell>
        <mxCell id="blFSkxdI-w_qwhiomdWg-40" value="" style="endArrow=none;dashed=1;html=1;dashPattern=1 3;strokeWidth=2;rounded=0;exitX=0.34;exitY=0.962;exitDx=0;exitDy=0;exitPerimeter=0;entryX=0.5;entryY=0;entryDx=0;entryDy=0;" edge="1" parent="1" source="blFSkxdI-w_qwhiomdWg-4" target="blFSkxdI-w_qwhiomdWg-23">
          <mxGeometry width="50" height="50" relative="1" as="geometry">
            <mxPoint x="420" y="360" as="sourcePoint" />
            <mxPoint x="470" y="310" as="targetPoint" />
          </mxGeometry>
        </mxCell>
        <mxCell id="blFSkxdI-w_qwhiomdWg-41" value="" style="endArrow=none;dashed=1;html=1;dashPattern=1 3;strokeWidth=2;rounded=0;exitX=0.5;exitY=1;exitDx=0;exitDy=0;" edge="1" parent="1" source="blFSkxdI-w_qwhiomdWg-4" target="blFSkxdI-w_qwhiomdWg-26">
          <mxGeometry width="50" height="50" relative="1" as="geometry">
            <mxPoint x="420" y="360" as="sourcePoint" />
            <mxPoint x="470" y="310" as="targetPoint" />
          </mxGeometry>
        </mxCell>
        <mxCell id="blFSkxdI-w_qwhiomdWg-42" value="" style="endArrow=none;dashed=1;html=1;dashPattern=1 3;strokeWidth=2;rounded=0;entryX=1;entryY=0.5;entryDx=0;entryDy=0;" edge="1" parent="1" source="blFSkxdI-w_qwhiomdWg-9" target="blFSkxdI-w_qwhiomdWg-12">
          <mxGeometry width="50" height="50" relative="1" as="geometry">
            <mxPoint x="420" y="360" as="sourcePoint" />
            <mxPoint x="470" y="310" as="targetPoint" />
          </mxGeometry>
        </mxCell>
        <mxCell id="blFSkxdI-w_qwhiomdWg-43" value="" style="endArrow=none;dashed=1;html=1;dashPattern=1 3;strokeWidth=2;rounded=0;exitX=-0.01;exitY=0.684;exitDx=0;exitDy=0;exitPerimeter=0;entryX=0.767;entryY=0.107;entryDx=0;entryDy=0;entryPerimeter=0;" edge="1" parent="1" source="blFSkxdI-w_qwhiomdWg-14" target="blFSkxdI-w_qwhiomdWg-9">
          <mxGeometry width="50" height="50" relative="1" as="geometry">
            <mxPoint x="420" y="360" as="sourcePoint" />
            <mxPoint x="470" y="310" as="targetPoint" />
          </mxGeometry>
        </mxCell>
        <mxCell id="blFSkxdI-w_qwhiomdWg-44" value="" style="endArrow=none;dashed=1;html=1;dashPattern=1 3;strokeWidth=2;rounded=0;" edge="1" parent="1" source="blFSkxdI-w_qwhiomdWg-11" target="blFSkxdI-w_qwhiomdWg-9">
          <mxGeometry width="50" height="50" relative="1" as="geometry">
            <mxPoint x="420" y="360" as="sourcePoint" />
            <mxPoint x="470" y="310" as="targetPoint" />
          </mxGeometry>
        </mxCell>
        <mxCell id="blFSkxdI-w_qwhiomdWg-45" value="" style="endArrow=none;dashed=1;html=1;dashPattern=1 3;strokeWidth=2;rounded=0;" edge="1" parent="1" source="blFSkxdI-w_qwhiomdWg-13" target="blFSkxdI-w_qwhiomdWg-9">
          <mxGeometry width="50" height="50" relative="1" as="geometry">
            <mxPoint x="420" y="360" as="sourcePoint" />
            <mxPoint x="470" y="310" as="targetPoint" />
          </mxGeometry>
        </mxCell>
      </root>
    </mxGraphModel>
  </diagram>
</mxfile>
